<?xml version="1.0" encoding="UTF-8"?>
<svg version="1.1" xmlns="http://www.w3.org/2000/svg" width="675" height="427">
<path d="M0 0 C222.75 0 445.5 0 675 0 C675 140.91 675 281.82 675 427 C452.25 427 229.5 427 0 427 C0 286.09 0 145.18 0 0 Z " fill="#FAFBFC" transform="translate(0,0)"/>
<path d="M0 0 C221.76 0 443.52 0 672 0 C672 10.89 672 21.78 672 33 C450.24 33 228.48 33 0 33 C0 22.11 0 11.22 0 0 Z " fill="#FDFDFD" transform="translate(2,393)"/>
<path d="M0 0 C1.44655749 -0.00751056 1.44655749 -0.00751056 2.92233837 -0.01517284 C3.99142409 -0.01049051 5.06050981 -0.00580817 6.16199207 -0.00098395 C7.29491094 -0.00389084 8.4278298 -0.00679772 9.59507954 -0.00979269 C12.76318658 -0.01586887 15.93114184 -0.01289453 19.09924318 -0.00623678 C22.53698195 -0.00118959 25.97470137 -0.00767274 29.41243744 -0.01272345 C35.44525805 -0.01996872 41.47804292 -0.01971431 47.51086521 -0.01462913 C56.48163338 -0.0070879 65.45237119 -0.01091923 74.42313913 -0.01704574 C90.44161337 -0.02759752 106.46007171 -0.02665638 122.47854748 -0.02088792 C136.49625562 -0.01586449 150.51395791 -0.0145398 164.53166676 -0.0169332 C165.92430368 -0.01716236 165.92430368 -0.01716236 167.34507468 -0.01739614 C171.11348427 -0.01801878 174.88189385 -0.01865558 178.65030343 -0.01931567 C214.02894616 -0.02543902 249.40757872 -0.01987827 284.78621988 -0.00912188 C316.2448008 0.00036992 347.70336552 -0.00047931 379.1619463 -0.01004386 C414.47427621 -0.0207441 449.78659714 -0.02500482 485.09892845 -0.01881933 C488.86062654 -0.01817786 492.62232462 -0.01755218 496.38402271 -0.0169332 C497.31030569 -0.01677505 498.23658866 -0.01661689 499.19094082 -0.01645395 C513.20271195 -0.01417527 527.2144766 -0.01684648 541.22624683 -0.02189231 C557.15204764 -0.02759867 573.07782999 -0.02620721 589.00362849 -0.01533082 C597.92592027 -0.00943908 606.84817212 -0.00910239 615.7704629 -0.01662317 C621.72029701 -0.02108695 627.6700989 -0.0183551 633.61992821 -0.00961363 C637.01654723 -0.0048277 640.41308655 -0.00328763 643.80970323 -0.0104256 C647.45777984 -0.01643398 651.10563284 -0.01034428 654.7536974 -0.00098395 C655.82278312 -0.00566629 656.89186884 -0.01034862 657.9933511 -0.01517284 C658.95772276 -0.0101658 659.92209442 -0.00515877 660.91568947 0 C662.16863453 0.00020328 662.16863453 0.00020328 663.44689161 0.00041066 C665.45784473 0.25069833 665.45784473 0.25069833 667.45784473 2.25069833 C667.7166338 5.01632333 667.7166338 5.01632333 667.72346973 8.50069833 C667.72604786 9.74851083 667.72862598 10.99632333 667.73128223 12.28194833 C667.72354786 13.59163583 667.71581348 14.90132333 667.70784473 16.25069833 C667.71557911 17.56038583 667.72331348 18.87007333 667.73128223 20.21944833 C667.72741505 22.09116708 667.72741505 22.09116708 667.72346973 24.00069833 C667.72121387 25.15054208 667.71895802 26.30038583 667.7166338 27.48507333 C667.45784473 30.25069833 667.45784473 30.25069833 665.45784473 32.25069833 C663.44689161 32.50098599 663.44689161 32.50098599 660.91568947 32.50139666 C659.46913198 32.50890721 659.46913198 32.50890721 657.9933511 32.5165695 C656.92426538 32.51188716 655.85517966 32.50720483 654.7536974 32.50238061 C653.62077853 32.50528749 652.48785967 32.50819437 651.32060993 32.51118934 C648.15250288 32.51726553 644.98454762 32.51429118 641.81644629 32.50763344 C638.37870752 32.50258625 634.9409881 32.50906939 631.50325203 32.5141201 C625.47043142 32.52136538 619.43764655 32.52111097 613.40482426 32.51602578 C604.43405609 32.50848456 595.46331828 32.51231589 586.49255034 32.5184424 C570.47407609 32.52899417 554.45561776 32.52805304 538.43714198 32.52228457 C524.41943385 32.51726115 510.40173156 32.51593646 496.38402271 32.51832986 C495.4555981 32.51848263 494.52717349 32.5186354 493.57061479 32.5187928 C489.8022052 32.51941544 486.03379562 32.52005223 482.26538603 32.52071233 C446.88674331 32.52683568 411.50811075 32.52127493 376.12946959 32.51051853 C344.67088867 32.50102673 313.21232395 32.50187596 281.75374317 32.51144052 C246.44141326 32.52214076 211.12909233 32.52640148 175.81676102 32.52021599 C172.05506293 32.51957452 168.29336484 32.51894884 164.53166676 32.51832986 C163.60538378 32.5181717 162.67910081 32.51801355 161.72474865 32.5178506 C147.71297752 32.51557193 133.70121287 32.51824314 119.68944263 32.52328897 C103.76364182 32.52899533 87.83785947 32.52760386 71.91206098 32.51672748 C62.9897692 32.51083573 54.06751735 32.51049905 45.14522657 32.51801983 C39.19539246 32.52248361 33.24559057 32.51975176 27.29576125 32.51101029 C23.89914224 32.50622435 20.50260292 32.50468428 17.10598624 32.51182225 C13.45790963 32.51783064 9.81005663 32.51174094 6.16199207 32.50238061 C5.09290635 32.50706294 4.02382063 32.51174527 2.92233837 32.5165695 C1.95796671 32.51156246 0.99359504 32.50655542 0 32.50139666 C-1.25294506 32.50119338 -1.25294506 32.50119338 -2.53120214 32.50098599 C-4.54215527 32.25069833 -4.54215527 32.25069833 -6.54215527 30.25069833 C-6.80094433 27.48507333 -6.80094433 27.48507333 -6.80778027 24.00069833 C-6.81035839 22.75288583 -6.81293652 21.50507333 -6.81559277 20.21944833 C-6.80785839 18.90976083 -6.80012402 17.60007333 -6.79215527 16.25069833 C-6.79988964 14.94101083 -6.80762402 13.63132333 -6.81559277 12.28194833 C-6.81301464 11.03413583 -6.81043652 9.78632333 -6.80778027 8.50069833 C-6.80552441 7.35085458 -6.80326855 6.20101083 -6.80094433 5.01632333 C-6.3555487 0.25647266 -4.25987295 0.00069112 0 0 Z " fill="#070707" transform="translate(7.5421552658081055,0.7493016719818115)"/>
<path d="M0 0 C222.75 0 445.5 0 675 0 C674.67 0.99 674.34 1.98 674 3 C673.67 2.67 673.34 2.34 673 2 C671.52960256 1.90247212 670.05452085 1.87477032 668.58089256 1.87465084 C667.61851197 1.87214732 666.65613138 1.8696438 665.66458774 1.86706442 C664.59258915 1.86940558 663.52059057 1.87174675 662.41610718 1.87415886 C661.28404256 1.87270542 660.15197794 1.87125198 658.98560834 1.86975449 C655.81528128 1.86671296 652.64499203 1.86820647 649.47466639 1.87153245 C646.036237 1.87405338 642.59781248 1.87081554 639.15938377 1.86828911 C633.12382859 1.86466451 627.08828235 1.86479488 621.05272675 1.86733627 C612.07792478 1.87110511 603.10313041 1.86919215 594.1283285 1.86612797 C578.10313719 1.86085068 562.07794985 1.8613232 546.05275816 1.86420688 C532.02921058 1.86671812 518.00566446 1.86738116 503.9821167 1.86618423 C502.58915898 1.86606966 502.58915898 1.86606966 501.16806071 1.86595276 C497.39882856 1.86564145 493.62959642 1.86532305 489.86036428 1.864993 C454.47053494 1.86193099 419.08070814 1.86471222 383.6908792 1.8700899 C352.21904831 1.87483583 320.74722147 1.87441122 289.27539062 1.86962891 C253.95209249 1.86427934 218.6287966 1.86214811 183.30549812 1.86524117 C179.54295985 1.86556191 175.78042158 1.86587475 172.0178833 1.86618423 C171.0913864 1.86626331 170.1648895 1.86634239 169.21031694 1.86642386 C155.19235505 1.86756343 141.17439477 1.86622717 127.15643311 1.86370468 C111.22436303 1.86085213 95.29229756 1.86154588 79.36022806 1.86698543 C70.4332978 1.86993236 61.50637751 1.87009812 52.5794475 1.86633925 C46.62776487 1.86410863 40.6760903 1.86547096 34.72440887 1.86984402 C31.32591145 1.87223876 27.92743395 1.87300338 24.5289371 1.86943804 C20.88056931 1.86643765 17.23225758 1.86947478 13.58389282 1.87415886 C12.51189424 1.87181769 11.43989565 1.86947653 10.33541226 1.86706442 C9.37303167 1.86956793 8.41065108 1.87207145 7.41910744 1.87465084 C6.1655928 1.87475247 6.1655928 1.87475247 4.88675463 1.87485617 C2.98765924 1.79275454 2.98765924 1.79275454 2 3 C1.90186269 5.24129268 1.87628902 7.48575552 1.87695217 9.72919559 C1.87579843 10.44479349 1.87464468 11.1603914 1.87345598 11.89767408 C1.87078372 14.32479549 1.87531544 16.75185221 1.87974548 19.17897034 C1.87930851 20.92038997 1.87843243 22.66180954 1.87715149 24.40322876 C1.87489602 29.22184394 1.87893888 34.04043713 1.88392727 38.85904951 C1.88827407 44.12256248 1.88683398 49.38607432 1.88610935 54.64958858 C1.88557628 64.88079764 1.89020727 75.11199796 1.89661068 85.34320476 C1.9037922 97.17016961 1.90460441 108.99712917 1.90539551 120.82409668 C1.91065238 152.07023251 1.9246134 183.31636638 1.9375 214.5625 C1.958125 284.336875 1.97875 354.11125 2 426 C223.76 426 445.52 426 674 426 C674 295.65 674 165.3 674 31 C674.33 31 674.66 31 675 31 C675 161.68 675 292.36 675 427 C452.25 427 229.5 427 0 427 C0 286.09 0 145.18 0 0 Z " fill="#BCBCBC" transform="translate(0,0)"/>
<path d="M0 0 C222.75 0 445.5 0 675 0 C674.67 0.99 674.34 1.98 674 3 C673.67 2.67 673.34 2.34 673 2 C671.52960256 1.90247212 670.05452085 1.87477032 668.58089256 1.87465084 C667.61851197 1.87214732 666.65613138 1.8696438 665.66458774 1.86706442 C664.59258915 1.86940558 663.52059057 1.87174675 662.41610718 1.87415886 C661.28404256 1.87270542 660.15197794 1.87125198 658.98560834 1.86975449 C655.81528128 1.86671296 652.64499203 1.86820647 649.47466639 1.87153245 C646.036237 1.87405338 642.59781248 1.87081554 639.15938377 1.86828911 C633.12382859 1.86466451 627.08828235 1.86479488 621.05272675 1.86733627 C612.07792478 1.87110511 603.10313041 1.86919215 594.1283285 1.86612797 C578.10313719 1.86085068 562.07794985 1.8613232 546.05275816 1.86420688 C532.02921058 1.86671812 518.00566446 1.86738116 503.9821167 1.86618423 C502.58915898 1.86606966 502.58915898 1.86606966 501.16806071 1.86595276 C497.39882856 1.86564145 493.62959642 1.86532305 489.86036428 1.864993 C454.47053494 1.86193099 419.08070814 1.86471222 383.6908792 1.8700899 C352.21904831 1.87483583 320.74722147 1.87441122 289.27539062 1.86962891 C253.95209249 1.86427934 218.6287966 1.86214811 183.30549812 1.86524117 C179.54295985 1.86556191 175.78042158 1.86587475 172.0178833 1.86618423 C171.0913864 1.86626331 170.1648895 1.86634239 169.21031694 1.86642386 C155.19235505 1.86756343 141.17439477 1.86622717 127.15643311 1.86370468 C111.22436303 1.86085213 95.29229756 1.86154588 79.36022806 1.86698543 C70.4332978 1.86993236 61.50637751 1.87009812 52.5794475 1.86633925 C46.62776487 1.86410863 40.6760903 1.86547096 34.72440887 1.86984402 C31.32591145 1.87223876 27.92743395 1.87300338 24.5289371 1.86943804 C20.88056931 1.86643765 17.23225758 1.86947478 13.58389282 1.87415886 C12.51189424 1.87181769 11.43989565 1.86947653 10.33541226 1.86706442 C9.37303167 1.86956793 8.41065108 1.87207145 7.41910744 1.87465084 C6.1655928 1.87475247 6.1655928 1.87475247 4.88675463 1.87485617 C2.98765924 1.79275454 2.98765924 1.79275454 2 3 C1.89679534 5.24637657 1.86597685 7.49607169 1.8613348 9.74481297 C1.85849258 10.46183725 1.85565036 11.17886154 1.85272202 11.91761383 C1.84431633 14.35073189 1.84310225 16.7838027 1.84178162 19.2169342 C1.83722025 20.96671378 1.83222087 22.71649226 1.82681805 24.46626943 C1.81317901 29.29827498 1.805802 34.13027346 1.79939139 38.96229327 C1.79141264 44.16410509 1.77770625 49.36590206 1.76467896 54.56770325 C1.74288022 63.58806458 1.72474822 72.60842738 1.70907402 81.62880135 C1.68640623 94.67090955 1.65825919 107.71300134 1.62875474 120.75509565 C1.58104083 141.91265094 1.53778698 163.07021292 1.49731445 184.2277832 C1.45797883 204.78605673 1.41655727 225.34432431 1.37231445 245.90258789 C1.36959018 247.16881129 1.36686591 248.43503469 1.36405908 249.7396285 C1.35037992 256.09160415 1.33665959 262.44357972 1.32291877 268.79555523 C1.20889433 321.53035774 1.10209822 374.26517315 1 427 C0.67 427 0.34 427 0 427 C0 286.09 0 145.18 0 0 Z " fill="#FEFEFE" transform="translate(0,0)"/>
<path d="M0 0 C1.65 0 3.3 0 5 0 C5.33 1.32 5.66 2.64 6 4 C7.98 3.67 9.96 3.34 12 3 C12.66 4.32 13.32 5.64 14 7 C13.01 8.485 13.01 8.485 12 10 C13.32 10.33 14.64 10.66 16 11 C16.625 12.875 16.625 12.875 17 15 C16.34 15.66 15.68 16.32 15 17 C14.01 17 13.02 17 12 17 C12.33 19.31 12.66 21.62 13 24 C9.98968256 24.93423645 9.13349732 25.04449911 6 24 C5.34 25.32 4.68 26.64 4 28 C2.0625 27.6875 2.0625 27.6875 0 27 C-0.33 26.01 -0.66 25.02 -1 24 C-1.94875 24.20625 -2.8975 24.4125 -3.875 24.625 C-4.90625 24.74875 -5.9375 24.8725 -7 25 C-7.66 24.34 -8.32 23.68 -9 23 C-8.625 19.875 -8.625 19.875 -8 17 C-9.32 16.67 -10.64 16.34 -12 16 C-11.6875 13.625 -11.6875 13.625 -11 11 C-10.01 10.34 -9.02 9.68 -8 9 C-8.309375 8.071875 -8.309375 8.071875 -8.625 7.125 C-8.810625 6.073125 -8.810625 6.073125 -9 5 C-8.34 4.34 -7.68 3.68 -7 3 C-3.875 3.375 -3.875 3.375 -1 4 C-0.67 2.68 -0.34 1.36 0 0 Z " fill="#F4F4F4" transform="translate(252,308)"/>
<path d="M0 0 C7.92 0 15.84 0 24 0 C24 2.64 24 5.28 24 8 C23.34 8 22.68 8 22 8 C22.01160156 9.07121094 22.02320312 10.14242187 22.03515625 11.24609375 C22.04453299 12.64322743 22.05363331 14.04036299 22.0625 15.4375 C22.07087891 16.14455078 22.07925781 16.85160156 22.08789062 17.58007812 C22.09653588 19.38693559 22.05220011 21.19387603 22 23 C21 24 21 24 19.14233398 24.11352539 C18.35157471 24.10828857 17.56081543 24.10305176 16.74609375 24.09765625 C15.89208984 24.09443359 15.03808594 24.09121094 14.15820312 24.08789062 C13.26037109 24.07951172 12.36253906 24.07113281 11.4375 24.0625 C10.53580078 24.05798828 9.63410156 24.05347656 8.70507812 24.04882812 C6.47002411 24.03700244 4.23500398 24.01906638 2 24 C2 18.72 2 13.44 2 8 C1.34 8 0.68 8 0 8 C0 5.36 0 2.72 0 0 Z " fill="#454545" transform="translate(79,140)"/>
<path d="M0 0 C4.65019227 0.08333678 7.55049235 0.59151529 11.1875 3.5625 C15.68589997 8.73286013 15.2583832 14.64667003 14.9140625 21.1484375 C14.4375 24.5625 14.4375 24.5625 12.4375 26.5625 C9.5668534 26.7346221 6.80497658 26.79473075 3.9375 26.75 C3.15246094 26.74935547 2.36742187 26.74871094 1.55859375 26.74804688 C-4.28156304 26.70296848 -4.28156304 26.70296848 -6.5625 25.5625 C-6.59136984 21.58334841 -6.60925406 17.60422347 -6.625 13.625 C-6.63337891 12.48869141 -6.64175781 11.35238281 -6.65039062 10.18164062 C-6.65361328 9.10205078 -6.65683594 8.02246094 -6.66015625 6.91015625 C-6.66539307 5.90992432 -6.67062988 4.90969238 -6.67602539 3.87915039 C-6.46247368 -0.47868235 -3.85273571 0.22663151 0 0 Z " fill="#F7F7F7" transform="translate(575.5625,140.4375)"/>
<path d="M0 0 C7.26 0 14.52 0 22 0 C22 0.66 22 1.32 22 2 C21.34 2 20.68 2 20 2 C20 8.6 20 15.2 20 22 C14.06 22 8.12 22 2 22 C2 15.4 2 8.8 2 2 C1.34 2 0.68 2 0 2 C0 1.34 0 0.68 0 0 Z " fill="#D7D7D7" transform="translate(242,141)"/>
<path d="M0 0 C2.48118777 1.81203689 3.3466922 3.26170896 5 6 C5.36488279 9.04068989 5.31844054 11.10625528 4.29296875 13.984375 C3.74857454 16.06331415 3.74857454 16.06331415 5.21484375 17.6328125 C5.78332031 18.12523437 6.35179687 18.61765625 6.9375 19.125 C7.98901394 20.04956579 9.01707166 21.00282632 10 22 C10 22.66 10 23.32 10 24 C7.39619281 22.88408263 5.93900464 21.93328633 4 19.8125 C3.34 19.214375 2.68 18.61625 2 18 C0.09415804 18.20376178 0.09415804 18.20376178 -2 19 C-6.21935311 19.38357756 -8.28233481 19.46804252 -11.875 17.125 C-14.78710658 14.21289342 -14.96068305 13.3997223 -15.375 9.1875 C-15.34874901 5.5779882 -15.05911955 5.07312154 -12.625 2.0625 C-8.38051418 -1.27245315 -5.16507374 -1.599889 0 0 Z " fill="#F9F9F9" transform="translate(417,140)"/>
<path d="M0 0 C5.28 0 10.56 0 16 0 C16 4.62 16 9.24 16 14 C10.72 14 5.44 14 0 14 C0 9.38 0 4.76 0 0 Z " fill="#EBEBEB" transform="translate(83,148)"/>
<path d="M0 0 C1.65 0 3.3 0 5 0 C5.33 1.32 5.66 2.64 6 4 C7.98 3.67 9.96 3.34 12 3 C12.66 4.32 13.32 5.64 14 7 C13.01 8.485 13.01 8.485 12 10 C13.32 10.33 14.64 10.66 16 11 C16.625 12.875 16.625 12.875 17 15 C16.34 15.66 15.68 16.32 15 17 C14.01 17 13.02 17 12 17 C12.33 19.31 12.66 21.62 13 24 C9.98968256 24.93423645 9.13349732 25.04449911 6 24 C5.34 25.32 4.68 26.64 4 28 C2.0625 27.6875 2.0625 27.6875 0 27 C-0.33 26.01 -0.66 25.02 -1 24 C-1.94875 24.20625 -2.8975 24.4125 -3.875 24.625 C-4.90625 24.74875 -5.9375 24.8725 -7 25 C-7.66 24.34 -8.32 23.68 -9 23 C-8.625 19.875 -8.625 19.875 -8 17 C-9.32 16.67 -10.64 16.34 -12 16 C-11.6875 13.625 -11.6875 13.625 -11 11 C-10.01 10.34 -9.02 9.68 -8 9 C-8.309375 8.071875 -8.309375 8.071875 -8.625 7.125 C-8.810625 6.073125 -8.810625 6.073125 -9 5 C-8.34 4.34 -7.68 3.68 -7 3 C-3.875 3.375 -3.875 3.375 -1 4 C-0.67 2.68 -0.34 1.36 0 0 Z M2 1 C1.34 2.32 0.68 3.64 0 5 C-2.31 5 -4.62 5 -7 5 C-6.67 6.98 -6.34 8.96 -6 11 C-7.98 11.99 -7.98 11.99 -10 13 C-10 13.66 -10 14.32 -10 15 C-8.02 15.99 -8.02 15.99 -6 17 C-6 18.98 -6 20.96 -6 23 C-4.02 23 -2.04 23 0 23 C0.33 23.99 0.66 24.98 1 26 C1.99 26 2.98 26 4 26 C4.33 25.01 4.66 24.02 5 23 C6.98 23 8.96 23 11 23 C12.21081851 19.89459074 12.21081851 19.89459074 12 16 C12.99 15.67 13.98 15.34 15 15 C14.67 14.01 14.34 13.02 14 12 C13.01 11.67 12.02 11.34 11 11 C11.33 9.02 11.66 7.04 12 5 C9.69 5 7.38 5 5 5 C4.34 3.68 3.68 2.36 3 1 C2.67 1 2.34 1 2 1 Z " fill="#3A3A3A" transform="translate(252,308)"/>
<path d="M0 0 C3.3125 -0.25 3.3125 -0.25 7 0 C8.9375 2 8.9375 2 10 4 C11.11375 3.79375 12.2275 3.5875 13.375 3.375 C14.57125 3.25125 15.7675 3.1275 17 3 C20.00617269 6.00617269 19.59585316 8.82381598 20 13 C18.72125 13.061875 17.4425 13.12375 16.125 13.1875 C15.40570313 13.22230469 14.68640625 13.25710937 13.9453125 13.29296875 C13.30335937 13.19628906 12.66140625 13.09960938 12 13 C11.34 12.01 10.68 11.02 10 10 C9.649375 10.495 9.29875 10.99 8.9375 11.5 C6.05625711 13.73063966 3.52990974 13.19980621 0 13 C0 8.71 0 4.42 0 0 Z " fill="#343434" transform="translate(23,59)"/>
<path d="M0 0 C4.65019227 0.08333678 7.55049235 0.59151529 11.1875 3.5625 C15.68589997 8.73286013 15.2583832 14.64667003 14.9140625 21.1484375 C14.4375 24.5625 14.4375 24.5625 12.4375 26.5625 C9.5668534 26.7346221 6.80497658 26.79473075 3.9375 26.75 C3.15246094 26.74935547 2.36742187 26.74871094 1.55859375 26.74804688 C-4.28156304 26.70296848 -4.28156304 26.70296848 -6.5625 25.5625 C-6.59136984 21.58334841 -6.60925406 17.60422347 -6.625 13.625 C-6.63337891 12.48869141 -6.64175781 11.35238281 -6.65039062 10.18164062 C-6.65361328 9.10205078 -6.65683594 8.02246094 -6.66015625 6.91015625 C-6.66539307 5.90992432 -6.67062988 4.90969238 -6.67602539 3.87915039 C-6.46247368 -0.47868235 -3.85273571 0.22663151 0 0 Z M-5.5625 2.5625 C-5.59137814 6.04164941 -5.60925687 9.52076831 -5.625 13 C-5.63337891 13.99322266 -5.64175781 14.98644531 -5.65039062 16.00976562 C-5.65361328 16.95400391 -5.65683594 17.89824219 -5.66015625 18.87109375 C-5.66539307 19.74564209 -5.67062988 20.62019043 -5.67602539 21.52124023 C-5.79034809 23.55690206 -5.79034809 23.55690206 -4.5625 24.5625 C-1.69982433 24.63575168 1.138219 24.65488205 4 24.625 C5.20946289 24.61823242 5.20946289 24.61823242 6.44335938 24.61132812 C8.44143756 24.59950518 10.43947783 24.58156914 12.4375 24.5625 C12.4375 19.9425 12.4375 15.3225 12.4375 10.5625 C9.4675 10.5625 6.4975 10.5625 3.4375 10.5625 C3.4375 7.9225 3.4375 5.2825 3.4375 2.5625 C0.4675 2.5625 -2.5025 2.5625 -5.5625 2.5625 Z " fill="#2E2E2E" transform="translate(575.5625,140.4375)"/>
<path d="M0 0 C7.26 0 14.52 0 22 0 C22 0.66 22 1.32 22 2 C21.34 2 20.68 2 20 2 C20 8.6 20 15.2 20 22 C14.06 22 8.12 22 2 22 C2 15.4 2 8.8 2 2 C1.34 2 0.68 2 0 2 C0 1.34 0 0.68 0 0 Z M4 2 C4 7.94 4 13.88 4 20 C8.62 20 13.24 20 18 20 C18 14.06 18 8.12 18 2 C13.38 2 8.76 2 4 2 Z " fill="#404040" transform="translate(242,141)"/>
<path d="M0 0 C0.12117187 0.62648438 0.24234375 1.25296875 0.3671875 1.8984375 C0.53476562 2.71570313 0.70234375 3.53296875 0.875 4.375 C1.11863281 5.59316406 1.11863281 5.59316406 1.3671875 6.8359375 C1.86658932 9.18673923 1.86658932 9.18673923 4 11 C6.06874034 11.6425235 6.06874034 11.6425235 8 12 C6.25 15.875 6.25 15.875 4 17 C-0.0130324 17.53507099 -1.53928033 17.33051628 -4.875 14.9375 C-7 12 -7 12 -7.625 8.5 C-6.88568253 4.35982217 -4.77392108 0 0 0 Z " fill="#141414" transform="translate(575,8)"/>
<path d="M0 0 C2.48118777 1.81203689 3.3466922 3.26170896 5 6 C5.36488279 9.04068989 5.31844054 11.10625528 4.29296875 13.984375 C3.74857454 16.06331415 3.74857454 16.06331415 5.21484375 17.6328125 C5.78332031 18.12523437 6.35179687 18.61765625 6.9375 19.125 C7.98901394 20.04956579 9.01707166 21.00282632 10 22 C10 22.66 10 23.32 10 24 C7.39619281 22.88408263 5.93900464 21.93328633 4 19.8125 C3.34 19.214375 2.68 18.61625 2 18 C0.09415804 18.20376178 0.09415804 18.20376178 -2 19 C-6.21935311 19.38357756 -8.28233481 19.46804252 -11.875 17.125 C-14.78710658 14.21289342 -14.96068305 13.3997223 -15.375 9.1875 C-15.34874901 5.5779882 -15.05911955 5.07312154 -12.625 2.0625 C-8.38051418 -1.27245315 -5.16507374 -1.599889 0 0 Z M-13 5 C-13.94237143 8.99893269 -13.61136591 11.98105682 -11.5 15.5 C-7.98105682 17.61136591 -4.99893269 17.94237143 -1 17 C1.99097304 14.45767292 2.84202557 12.8425303 3.5625 9 C2.79301948 4.89610387 1.32878632 3.46040728 -2 1 C-6.94151119 0.07346665 -9.75032314 1.17685075 -13 5 Z " fill="#363636" transform="translate(417,140)"/>
<path d="M0 0 C1.875 1.0625 1.875 1.0625 3 3 C2.55555556 9.44444444 2.55555556 9.44444444 1 11 C-5.22357019 11.4610052 -5.22357019 11.4610052 -8 9.8125 C-9 8 -9 8 -8.875 5.5 C-7.20444097 0.72697421 -5.09546631 -0.76431995 0 0 Z " fill="#333333" transform="translate(91,310)"/>
<path d="M0 0 C0.33 0.66 0.66 1.32 1 2 C1.71027344 1.98839844 2.42054687 1.97679687 3.15234375 1.96484375 C4.07144531 1.95582031 4.99054688 1.94679687 5.9375 1.9375 C6.85402344 1.92589844 7.77054688 1.91429687 8.71484375 1.90234375 C11 2 11 2 12 3 C12.14115161 5.67058851 12.04247107 8.32432238 12 11 C11.67 10.01 11.34 9.02 11 8 C9.68 8 8.36 8 7 8 C7 8.99 7 9.98 7 11 C7.99 11.33 8.98 11.66 10 12 C6.7 12 3.4 12 0 12 C0 9.36 0 6.72 0 4 C-0.66 4 -1.32 4 -2 4 C-2 3.34 -2 2.68 -2 2 C-1.34 2 -0.68 2 0 2 C0 1.34 0 0.68 0 0 Z " fill="#979898" transform="translate(87,240)"/>
<path d="M0 0 C0.66 0 1.32 0 2 0 C2.33 1.32 2.66 2.64 3 4 C3.9590625 4.2165625 3.9590625 4.2165625 4.9375 4.4375 C7 5 7 5 8 6 C8.125 9.5 8.125 9.5 8 13 C7.67 13.33 7.34 13.66 7 14 C4.69 14 2.38 14 0 14 C0 9.38 0 4.76 0 0 Z " fill="#313131" transform="translate(65,58)"/>
<path d="M0 0 C0.66 0 1.32 0 2 0 C2 4.62 2 9.24 2 14 C-0.31 14 -2.62 14 -5 14 C-6 13 -6 13 -6.1875 9.5625 C-6 6 -6 6 -4 4 C-3.01 4 -2.02 4 -1 4 C-0.67 2.68 -0.34 1.36 0 0 Z " fill="#363636" transform="translate(109,58)"/>
<path d="M0 0 C0.12375 0.639375 0.2475 1.27875 0.375 1.9375 C0.58125 2.618125 0.7875 3.29875 1 4 C1.66 4.33 2.32 4.66 3 5 C-0.96 5 -4.92 5 -9 5 C-9 4.01 -9 3.02 -9 2 C-9.66 2 -10.32 2 -11 2 C-11 2.99 -11 3.98 -11 5 C-12.79158489 5.02696365 -14.58328473 5.04637917 -16.375 5.0625 C-17.37273437 5.07410156 -18.37046875 5.08570313 -19.3984375 5.09765625 C-22 5 -22 5 -24 4 C-24 3.01 -24 2.02 -24 1 C-23.01604248 1.00785522 -23.01604248 1.00785522 -22.01220703 1.01586914 C-19.04981437 1.03661272 -16.08743697 1.04965176 -13.125 1.0625 C-12.09246094 1.07087891 -11.05992187 1.07925781 -9.99609375 1.08789062 C-9.00996094 1.09111328 -8.02382812 1.09433594 -7.0078125 1.09765625 C-6.09660645 1.10289307 -5.18540039 1.10812988 -4.24658203 1.11352539 C-1.96312491 1.14885565 -1.96312491 1.14885565 0 0 Z " fill="#B9BDC2" transform="translate(174,405)"/>
<path d="M0 0 C2.04698414 2.04698414 1.70045693 6.30411241 2 9 C-5.35678392 9.36180905 -5.35678392 9.36180905 -8 7.875 C-9.42098605 5.21065116 -9.19767261 2.96508915 -9 0 C-5.63861721 -0.8403457 -3.29612199 -1.17718642 0 0 Z " fill="#B7B8B8" transform="translate(41,63)"/>
<path d="M0 0 C2.475 0.495 2.475 0.495 5 1 C4.67 2.32 4.34 3.64 4 5 C2.68 5.33 1.36 5.66 0 6 C0.33 8.31 0.66 10.62 1 13 C-2.01031744 13.93423645 -2.86650268 14.04449911 -6 13 C-6.66 14.32 -7.32 15.64 -8 17 C-9.9375 16.6875 -9.9375 16.6875 -12 16 C-12.33 15.01 -12.66 14.02 -13 13 C-13.94875 13.20625 -14.8975 13.4125 -15.875 13.625 C-16.90625 13.74875 -17.9375 13.8725 -19 14 C-19.66 13.34 -20.32 12.68 -21 12 C-21 11.01 -21 10.02 -21 9 C-20.34 9 -19.68 9 -19 9 C-19 9.99 -19 10.98 -19 12 C-15.535 11.505 -15.535 11.505 -12 11 C-11.67 12.32 -11.34 13.64 -11 15 C-10.01 15 -9.02 15 -8 15 C-7.67 13.68 -7.34 12.36 -7 11 C-5.02 11 -3.04 11 -1 11 C-1 9.02 -1 7.04 -1 5 C0.32 4.67 1.64 4.34 3 4 C2.01 2.68 1.02 1.36 0 0 Z " fill="#333333" transform="translate(264,319)"/>
<path d="M0 0 C6.6 0 13.2 0 20 0 C20 1.32 20 2.64 20 4 C13.4 4 6.8 4 0 4 C0 2.68 0 1.36 0 0 Z " fill="#FAFAFA" transform="translate(81,142)"/>
<path d="M0 0 C2.97191105 0.06499209 5.91002656 0.19225896 8.875 0.375 C9.70386719 0.41882813 10.53273438 0.46265625 11.38671875 0.5078125 C14.84274046 0.70880892 17.6933539 0.89778463 21 2 C20.01 3.485 20.01 3.485 19 5 C12.44378551 6.16319934 6.60138653 6.01559793 0 5 C-0.5625 3.0625 -0.5625 3.0625 -1 1 C-0.67 0.67 -0.34 0.34 0 0 Z " fill="#B5BABF" transform="translate(606,405)"/>
<path d="M0 0 C0.33 0 0.66 0 1 0 C1 4.62 1 9.24 1 14 C-0.98 14 -2.96 14 -5 14 C-7 12 -7 12 -7.25 9 C-7 6 -7 6 -5 4 C-3.68 4 -2.36 4 -1 4 C-0.67 2.68 -0.34 1.36 0 0 Z " fill="#262627" transform="translate(41,238)"/>
<path d="M0 0 C5.71428571 0.71428571 5.71428571 0.71428571 7 2 C7.1875 4.9375 7.1875 4.9375 7 8 C5 10 5 10 2.5 10.25 C0 10 0 10 -2 8 C-1.42307692 1.42307692 -1.42307692 1.42307692 0 0 Z " fill="#3A3B3B" transform="translate(122,242)"/>
<path d="M0 0 C1.1446875 0.3403125 1.1446875 0.3403125 2.3125 0.6875 C2.9375 4.0625 2.9375 4.0625 3.3125 7.6875 C1.3125 9.6875 1.3125 9.6875 -1.1875 9.9375 C-3.6875 9.6875 -3.6875 9.6875 -5.6875 7.6875 C-6.05546448 4.81737704 -6.06259409 3.27975382 -4.5 0.8125 C-2.6875 -0.3125 -2.6875 -0.3125 0 0 Z " fill="#363737" transform="translate(80.6875,62.3125)"/>
<path d="M0 0 C1.95803507 -0.05389087 3.91648909 -0.09274217 5.875 -0.125 C7.51082031 -0.15980469 7.51082031 -0.15980469 9.1796875 -0.1953125 C12 0 12 0 14 2 C14.26991906 4.68839385 14.08737357 7.29141936 14 10 C13.34 10 12.68 10 12 10 C12 7.36 12 4.72 12 2 C10.68 2 9.36 2 8 2 C8 4.64 8 7.28 8 10 C7.34 10 6.68 10 6 10 C6 7.36 6 4.72 6 2 C4.68 2 3.36 2 2 2 C2 4.64 2 7.28 2 10 C1.34 10 0.68 10 0 10 C0 6.7 0 3.4 0 0 Z " fill="#3F4040" transform="translate(45,242)"/>
<path d="M0 0 C1.2375 0.1546875 1.2375 0.1546875 2.5 0.3125 C4.5 3.3125 4.5 3.3125 4.1875 5.9375 C3.5 8.3125 3.5 8.3125 2.5 9.3125 C0.0625 9.5 0.0625 9.5 -2.5 9.3125 C-4.5 7.3125 -4.5 7.3125 -4.75 4.8125 C-4.40047575 1.3172575 -3.47557682 0.4344471 0 0 Z " fill="#3C3C3C" transform="translate(254.5,316.6875)"/>
<path d="M0 0 C0.33 0 0.66 0 1 0 C1 2.31 1 4.62 1 7 C-2.28696233 7.79953138 -3.71023192 8.09658936 -7 7 C-8.66621616 6.96125079 -10.33394172 6.9549714 -12 7 C-12 5.02 -12 3.04 -12 1 C-8.14354879 0.77963136 -5.50776784 1.39644899 -2 3 C-1.34 2.01 -0.68 1.02 0 0 Z " fill="#A9A9A9" transform="translate(252,168)"/>
<path d="M0 0 C2.625 0.375 2.625 0.375 5 1 C5.042721 2.66611905 5.04063832 4.33382885 5 6 C4.67 6.33 4.34 6.66 4 7 C1.30917128 6.82364548 -1.32851446 6.38164079 -4 6 C-4 5.34 -4 4.68 -4 4 C-4.99 4 -5.98 4 -7 4 C-7 5.32 -7 6.64 -7 8 C-5.68 8.33 -4.36 8.66 -3 9 C-3.99 9.33 -4.98 9.66 -6 10 C-6.99 9.34 -7.98 8.68 -9 8 C-8.67 6.35 -8.34 4.7 -8 3 C-5.92446352 2.4465236 -4.15634036 2 -2 2 C-1.34 1.34 -0.68 0.68 0 0 Z " fill="#858585" transform="translate(117,12)"/>
<path d="M0 0 C0.12117187 0.62648438 0.24234375 1.25296875 0.3671875 1.8984375 C0.53476562 2.71570313 0.70234375 3.53296875 0.875 4.375 C1.11863281 5.59316406 1.11863281 5.59316406 1.3671875 6.8359375 C1.86658932 9.18673923 1.86658932 9.18673923 4 11 C6.06874034 11.6425235 6.06874034 11.6425235 8 12 C6.25 15.875 6.25 15.875 4 17 C-0.0130324 17.53507099 -1.53928033 17.33051628 -4.875 14.9375 C-7 12 -7 12 -7.625 8.5 C-6.88568253 4.35982217 -4.77392108 0 0 0 Z M-3 2 C-5.05651972 4.13561663 -5.92380597 5.56460552 -6.4375 8.5 C-6.15663659 11.10769304 -6.15663659 11.10769304 -4.4375 13.3125 C-1.185351 15.56398777 1.13193005 15.29754384 5 15 C5 14.34 5 13.68 5 13 C4.195625 12.2575 3.39125 11.515 2.5625 10.75 C-0.28712024 7.69187096 -0.71472089 6.08900062 -1 2 C-1.66 2 -2.32 2 -3 2 Z " fill="#BEBEBE" transform="translate(575,8)"/>
<path d="M0 0 C0.99 0.33 1.98 0.66 3 1 C4.16796875 3.72265625 4.16796875 3.72265625 5.1875 7.0625 C5.53167969 8.16722656 5.87585937 9.27195313 6.23046875 10.41015625 C6.48441406 11.26480469 6.73835938 12.11945313 7 13 C6.01 13 5.02 13 4 13 C4 11.68 4 10.36 4 9 C2.02 9 0.04 9 -2 9 C-2.33 10.32 -2.66 11.64 -3 13 C-4.23593891 9.29218328 -3.5678132 8.32489747 -2.0625 4.8125 C-1.68222656 3.91144531 -1.30195313 3.01039063 -0.91015625 2.08203125 C-0.60980469 1.39496094 -0.30945313 0.70789063 0 0 Z " fill="#545454" transform="translate(26,239)"/>
<path d="M0 0 C7.59 0 15.18 0 23 0 C23 2.31 23 4.62 23 7 C22.67 7 22.34 7 22 7 C22 5.35 22 3.7 22 2 C15.4 2 8.8 2 2 2 C2 3.98 2 5.96 2 8 C1.34 8 0.68 8 0 8 C0 5.36 0 2.72 0 0 Z " fill="#2C2C2C" transform="translate(79,140)"/>
<path d="M0 0 C0.66 0 1.32 0 2 0 C2 1.65 2 3.3 2 5 C2.66 3.35 3.32 1.7 4 0 C5.65 0.33 7.3 0.66 9 1 C8.67 1.66 8.34 2.32 8 3 C7.01 3 6.02 3 5 3 C6.32 3.66 7.64 4.32 9 5 C9 6.32 9 7.64 9 9 C5.67465243 10.10844919 3.37817425 9.84454356 0 9 C0 6.03 0 3.06 0 0 Z " fill="#737373" transform="translate(72,12)"/>
<path d="M0 0 C4.55555556 0.55555556 4.55555556 0.55555556 6 2 C5.71269945 4.33944736 5.38063221 6.6739143 5 9 C3.02 9 1.04 9 -1 9 C-1.625 5.625 -1.625 5.625 -2 2 C-1.34 1.34 -0.68 0.68 0 0 Z " fill="#5D5D5D" transform="translate(129,12)"/>
<path d="M0 0 C1.65 0 3.3 0 5 0 C5 0.66 5 1.32 5 2 C5.66 2 6.32 2 7 2 C7.33 1.34 7.66 0.68 8 0 C12 0 12 0 14 1 C14.625 3.0625 14.625 3.0625 15 5 C11 5 7 5 3 5 C2.01 5.495 2.01 5.495 1 6 C0.34 5.67 -0.32 5.34 -1 5 C-0.67 3.35 -0.34 1.7 0 0 Z " fill="#878787" transform="translate(413,171)"/>
<path d="M0 0 C1.22589844 -0.01933594 2.45179687 -0.03867187 3.71484375 -0.05859375 C7.0625 0.4375 7.0625 0.4375 9.48828125 2.29296875 C11.38881257 4.88203003 11.41154527 6.29609258 11.0625 9.4375 C10.4025 9.4375 9.7425 9.4375 9.0625 9.4375 C8.93875 8.633125 8.815 7.82875 8.6875 7 C8.48125 6.154375 8.275 5.30875 8.0625 4.4375 C5.33707733 3.07478867 3.10162726 3.26826399 0.0625 3.25 C-1.01 3.23582031 -2.0825 3.22164063 -3.1875 3.20703125 C-6.08203096 3.15164214 -6.08203096 3.15164214 -7.9375 5.4375 C-8.63498583 6.75497324 -9.30709957 8.08664193 -9.9375 9.4375 C-10.30002189 3.99967163 -10.30002189 3.99967163 -8.859375 1.765625 C-5.95694711 -0.24011785 -3.4862034 0.00365814 0 0 Z " fill="#303030" transform="translate(87.9375,323.5625)"/>
<path d="M0 0 C2.25 2.625 2.25 2.625 4 5 C3.67 5.66 3.34 6.32 3 7 C1.33388095 7.042721 -0.33382885 7.04063832 -2 7 C-2.33 6.67 -2.66 6.34 -3 6 C-3.66 6.66 -4.32 7.32 -5 8 C-5 5.36 -5 2.72 -5 0 C-7.64 0 -10.28 0 -13 0 C-13 -0.33 -13 -0.66 -13 -1 C-11.58566794 -1.2236337 -10.16832382 -1.42826476 -8.75 -1.625 C-7.56664062 -1.79902344 -7.56664062 -1.79902344 -6.359375 -1.9765625 C-3.61324317 -2.00384196 -2.29379753 -1.47736112 0 0 Z " fill="#7A7A7A" transform="translate(584,143)"/>
<path d="M0 0 C1.65 0 3.3 0 5 0 C6.38125018 2.76250036 6.19079306 4.94731099 6 8 C5.34 8.66 4.68 9.32 4 10 C2.68 10 1.36 10 0 10 C0 6.7 0 3.4 0 0 Z " fill="#EEEFF0" transform="translate(25,61)"/>
<path d="M0 0 C1.65 0 3.3 0 5 0 C7.125 5.625 7.125 5.625 6 9 C4.02 9 2.04 9 0 9 C0 6.03 0 3.06 0 0 Z " fill="#898989" transform="translate(22,12)"/>
<path d="M0 0 C0.66 0 1.32 0 2 0 C2.33 1.32 2.66 2.64 3 4 C3.9590625 4.2165625 3.9590625 4.2165625 4.9375 4.4375 C7 5 7 5 8 6 C8.14115161 8.67058851 8.04247107 11.32432238 8 14 C7.34 14 6.68 14 6 14 C6 11.36 6 8.72 6 6 C4.68 6 3.36 6 2 6 C2 8.64 2 11.28 2 14 C1.34 14 0.68 14 0 14 C0 9.38 0 4.76 0 0 Z " fill="#404141" transform="translate(54,58)"/>
<path d="M0 0 C1.66666667 0 3.33333333 0 5 0 C5 0.99 5 1.98 5 3 C5.66 3 6.32 3 7 3 C7.33 2.01 7.66 1.02 8 0 C8.33 0.66 8.66 1.32 9 2 C11.02463255 2.65213292 11.02463255 2.65213292 13 3 C12.67 4.32 12.34 5.64 12 7 C11.401875 6.814375 10.80375 6.62875 10.1875 6.4375 C7.83591238 5.77906313 7.83591238 5.77906313 5 7 C4.67 6.34 4.34 5.68 4 5 C3.34 5.66 2.68 6.32 2 7 C0.5393715 4.35261084 0 3.10551666 0 0 Z " fill="#7A7A7B" transform="translate(23,79)"/>
<path d="M0 0 C2.04698414 2.04698414 1.70045693 6.30411241 2 9 C-0.64 9 -3.28 9 -6 9 C-5.67 7.35 -5.34 5.7 -5 4 C-3.35 4 -1.7 4 0 4 C-0.33 3.34 -0.66 2.68 -1 2 C-2.65 2 -4.3 2 -6 2 C-6 1.34 -6 0.68 -6 0 C-3.49749232 -1.25125384 -2.59701335 -0.83774624 0 0 Z " fill="#272728" transform="translate(92,63)"/>
<path d="M0 0 C-0.33 1.32 -0.66 2.64 -1 4 C-1.99 4 -2.98 4 -4 4 C-4.33 4.66 -4.66 5.32 -5 6 C-6.65 5.67 -8.3 5.34 -10 5 C-9.67 3.02 -9.34 1.04 -9 -1 C-5.23375329 -2.25541557 -3.62811066 -1.37061958 0 0 Z " fill="#919191" transform="translate(95,344)"/>
<path d="M0 0 C1.485 0.99 1.485 0.99 3 2 C5.05709596 2.24055468 5.05709596 2.24055468 7.1875 2.125 C8.445625 2.08375 9.70375 2.0425 11 2 C11 3.65 11 5.3 11 7 C9.54176788 7.0270043 8.08339325 7.04639787 6.625 7.0625 C5.81289062 7.07410156 5.00078125 7.08570313 4.1640625 7.09765625 C2 7 2 7 0 6 C0 4.02 0 2.04 0 0 Z " fill="#8B8B8B" transform="translate(102,341)"/>
<path d="M0 0 C2.33294775 -0.04241723 4.66702567 -0.04092937 7 0 C8 1 8 1 8.09765625 3.06640625 C8.08605469 3.89011719 8.07445313 4.71382812 8.0625 5.5625 C8.05347656 6.38878906 8.04445313 7.21507812 8.03515625 8.06640625 C8.02355469 8.70449219 8.01195313 9.34257812 8 10 C7.34 10 6.68 10 6 10 C6 7.36 6 4.72 6 2 C5.01 2.33 4.02 2.66 3 3 C2.67 5.31 2.34 7.62 2 10 C1.34 10 0.68 10 0 10 C0 6.7 0 3.4 0 0 Z " fill="#4C4C4C" transform="translate(66,242)"/>
<path d="M0 0 C0.66 0 1.32 0 2 0 C2 2.31 2 4.62 2 7 C-1.3 7 -4.6 7 -8 7 C-8 5.35 -8 3.7 -8 2 C-5.36 2 -2.72 2 0 2 C0 1.34 0 0.68 0 0 Z " fill="#3D3D3E" transform="translate(86,79)"/>
<path d="M0 0 C0 1.98 0 3.96 0 6 C-0.99 6.33 -1.98 6.66 -3 7 C-3.33 7.66 -3.66 8.32 -4 9 C-4.66 9 -5.32 9 -6 9 C-6 6.03 -6 3.06 -6 0 C-3 -1 -3 -1 0 0 Z " fill="#6B6B6B" transform="translate(142,15)"/>
<path d="M0 0 C5.75 -0.125 5.75 -0.125 8 1 C8 3.97 8 6.94 8 10 C7.34 10 6.68 10 6 10 C6 7.36 6 4.72 6 2 C4.68 2 3.36 2 2 2 C2 4.64 2 7.28 2 10 C1.34 10 0.68 10 0 10 C0 6.7 0 3.4 0 0 Z " fill="#414142" transform="translate(131,242)"/>
<path d="M0 0 C2.00720923 0.28674418 4.0085944 0.61866701 6 1 C6.042721 2.66611905 6.04063832 4.33382885 6 6 C5 7 5 7 2.5 7.125 C0 7 0 7 -1 6 C-1.125 3.5 -1.125 3.5 -1 1 C-0.67 0.67 -0.34 0.34 0 0 Z " fill="#F9F9F9" transform="translate(86,312)"/>
<path d="M0 0 C4.62 0 9.24 0 14 0 C13.01 0.33 12.02 0.66 11 1 C11 1.99 11 2.98 11 4 C10.071875 3.979375 9.14375 3.95875 8.1875 3.9375 C4.97713989 3.84230396 4.97713989 3.84230396 2 5 C1.34 4.34 0.68 3.68 0 3 C0 2.01 0 1.02 0 0 Z " fill="#C0C4C8" transform="translate(92,406)"/>
<path d="M0 0 C0.33 0.99 0.66 1.98 1 3 C0.0409375 3.433125 0.0409375 3.433125 -0.9375 3.875 C-3.15206079 4.82823451 -3.15206079 4.82823451 -4 7 C-2.68 7.33 -1.36 7.66 0 8 C0.625 9.8125 0.625 9.8125 1 12 C0.01 13.485 0.01 13.485 -1 15 C-1.33 13.02 -1.66 11.04 -2 9 C-3.32 8.67 -4.64 8.34 -6 8 C-5.67 6.35 -5.34 4.7 -5 3 C-3.35 2.67 -1.7 2.34 0 2 C0 1.34 0 0.68 0 0 Z " fill="#5A5A5A" transform="translate(246,316)"/>
<path d="M0 0 C0.66 0.66 1.32 1.32 2 2 C1.01 2.495 1.01 2.495 0 3 C-2.41483656 4.99837319 -2.41483656 4.99837319 -2.4375 8.9375 C-2.27573375 12.4510629 -1.54791033 14.45208967 1 17 C-2 17 -2 17 -3.6875 15.5 C-5.51415695 12.02065344 -5.84175109 8.79539555 -5 5 C-2.5 2 -2.5 2 0 0 Z " fill="#3F3F3F" transform="translate(407,140)"/>
<path d="M0 0 C2.125 0.9375 2.125 0.9375 4 2 C3.67 3.65 3.34 5.3 3 7 C1.68 7 0.36 7 -1 7 C-1.33 7.99 -1.66 8.98 -2 10 C-2 7.03 -2 4.06 -2 1 C-1.34 0.67 -0.68 0.34 0 0 Z " fill="#7A7A7A" transform="translate(85,14)"/>
<path d="M0 0 C0.99 1.485 0.99 1.485 2 3 C2.33 2.01 2.66 1.02 3 0 C5.64 0.33 8.28 0.66 11 1 C11 1.99 11 2.98 11 4 C7.52674819 5.1577506 4.63932552 5.06866652 1 5 C0.67 3.35 0.34 1.7 0 0 Z " fill="#B9BDC2" transform="translate(581,405)"/>
<path d="M0 0 C1.69141656 0.08963062 3.37959602 0.24577676 5.0625 0.4375 C6.44115234 0.59025391 6.44115234 0.59025391 7.84765625 0.74609375 C8.55792969 0.82988281 9.26820312 0.91367187 10 1 C9.67 2.32 9.34 3.64 9 5 C6.03 5 3.06 5 0 5 C-0.33 3.68 -0.66 2.36 -1 1 C-0.67 0.67 -0.34 0.34 0 0 Z " fill="#BEC2C7" transform="translate(108,405)"/>
<path d="M0 0 C2.97 0 5.94 0 9 0 C9 1.65 9 3.3 9 5 C6.03 5 3.06 5 0 5 C0 3.35 0 1.7 0 0 Z " fill="#8F8F8F" transform="translate(261,343)"/>
<path d="M0 0 C3.875 0.875 3.875 0.875 5 2 C6.32594105 2.36162029 7.65938457 2.69728039 9 3 C8.34 3 7.68 3 7 3 C6.67 4.32 6.34 5.64 6 7 C4.02 7 2.04 7 0 7 C0 4.69 0 2.38 0 0 Z " fill="#838383" transform="translate(403,169)"/>
<path d="M0 0 C0.33 0 0.66 0 1 0 C1 2.31 1 4.62 1 7 C0.67 5.68 0.34 4.36 0 3 C-0.66 3 -1.32 3 -2 3 C-1.67 4.32 -1.34 5.64 -1 7 C-3.64 7 -6.28 7 -9 7 C-8.67 5.35 -8.34 3.7 -8 2 C-5.36 2 -2.72 2 0 2 C0 1.34 0 0.68 0 0 Z " fill="#363637" transform="translate(76,79)"/>
<path d="M0 0 C1.32 0.66 2.64 1.32 4 2 C4 3.65 4 5.3 4 7 C2.125 7.625 2.125 7.625 0 8 C-0.66 7.34 -1.32 6.68 -2 6 C-1.44444444 1.44444444 -1.44444444 1.44444444 0 0 Z " fill="#989898" transform="translate(61,14)"/>
<path d="M0 0 C0.33 0.99 0.66 1.98 1 3 C2.98 2.67 4.96 2.34 7 2 C7.66 3.32 8.32 4.64 9 6 C8.01 7.485 8.01 7.485 7 9 C7.99 9.33 8.98 9.66 10 10 C8.68 10.33 7.36 10.66 6 11 C5.375 9.1875 5.375 9.1875 5 7 C5.66 6.01 6.32 5.02 7 4 C4.69 4.33 2.38 4.66 0 5 C-0.33 4.01 -0.66 3.02 -1 2 C-0.67 1.34 -0.34 0.68 0 0 Z " fill="#474747" transform="translate(257,309)"/>
<path d="M0 0 C2.125 0.375 2.125 0.375 4 1 C4 2.65 4 4.3 4 6 C2.35 6.33 0.7 6.66 -1 7 C-1.625 4.625 -1.625 4.625 -2 2 C-1.34 1.34 -0.68 0.68 0 0 Z " fill="#A4A4A4" transform="translate(240,341)"/>
<path d="M0 0 C2.31 0.66 4.62 1.32 7 2 C6.67 3.65 6.34 5.3 6 7 C4 7 2 7 0 7 C-0.38133299 5.0085944 -0.71325582 3.00720923 -1 1 C-0.67 0.67 -0.34 0.34 0 0 Z " fill="#919191" transform="translate(260,169)"/>
<path d="M0 0 C3 1 3 1 5 4 C5.23062101 7.81293398 4.79682369 11.05561637 2.3125 14 C-0.58554547 15.25320885 -2.87538839 15.2130417 -6 15 C-6 14.67 -6 14.34 -6 14 C-4.865625 13.690625 -3.73125 13.38125 -2.5625 13.0625 C0.78775099 12.37075469 0.78775099 12.37075469 2 11 C2.23961213 6.76685233 2.32488647 3.63263511 0 0 Z " fill="#B5B5B5" transform="translate(608,10)"/>
<path d="M0 0 C3.63 0 7.26 0 11 0 C11 1.32 11 2.64 11 4 C7.37 4 3.74 4 0 4 C0 2.68 0 1.36 0 0 Z " fill="#B2B6BC" transform="translate(560,406)"/>
<path d="M0 0 C0.99 0.33 1.98 0.66 3 1 C4.39439664 1.06665376 5.79169875 1.08538199 7.1875 1.0625 C8.445625 1.041875 9.70375 1.02125 11 1 C11 2.32 11 3.64 11 5 C9.00045254 5.04254356 6.99958364 5.04080783 5 5 C4.67 4.67 4.34 4.34 4 4 C1.94603274 4.40929986 1.94603274 4.40929986 0 5 C0 3.35 0 1.7 0 0 Z " fill="#B0B4BA" transform="translate(504,405)"/>
<path d="M0 0 C2.64 0 5.28 0 8 0 C8.33 1.65 8.66 3.3 9 5 C8.34 4.01 7.68 3.02 7 2 C6.67 2.99 6.34 3.98 6 5 C3.69 5 1.38 5 -1 5 C-0.67 3.35 -0.34 1.7 0 0 Z " fill="#7F7F7F" transform="translate(71,343)"/>
<path d="M0 0 C0.33 0.66 0.66 1.32 1 2 C1.66 2.33 2.32 2.66 3 3 C2.34 3 1.68 3 1 3 C0.67 4.32 0.34 5.64 0 7 C-0.38133299 5.0085944 -0.71325582 3.00720923 -1 1 C-0.67 0.67 -0.34 0.34 0 0 Z M-8 2 C-5.69 2 -3.38 2 -1 2 C-1.33 2.66 -1.66 3.32 -2 4 C-2.66 3.67 -3.32 3.34 -4 3 C-4 3.99 -4 4.98 -4 6 C-3.01 6.33 -2.02 6.66 -1 7 C-1.78375 6.814375 -2.5675 6.62875 -3.375 6.4375 C-5.97089775 5.74037734 -5.97089775 5.74037734 -8 7 C-8 5.35 -8 3.7 -8 2 Z " fill="#858585" transform="translate(90,169)"/>
<path d="M0 0 C2.475 0.495 2.475 0.495 5 1 C5 2.65 5 4.3 5 6 C3.35 6.33 1.7 6.66 0 7 C0 4.69 0 2.38 0 0 Z " fill="#E7E7E8" transform="translate(67,64)"/>
<path d="M0 0 C1.32 0 2.64 0 4 0 C4 1.98 4 3.96 4 6 C2.0625 6.5625 2.0625 6.5625 0 7 C-1 6 -1 6 -1.125 3.5 C-1 1 -1 1 0 0 Z " fill="#F0F1F2" transform="translate(123,244)"/>
<path d="M0 0 C0.66 0 1.32 0 2 0 C2 0.66 2 1.32 2 2 C2.66 2 3.32 2 4 2 C4 2.66 4 3.32 4 4 C3.34 4 2.68 4 2 4 C2 6.31 2 8.62 2 11 C2.66 11.33 3.32 11.66 4 12 C2.68 12 1.36 12 0 12 C-0.19477739 10.37585622 -0.38059458 8.75063577 -0.5625 7.125 C-0.66691406 6.22007812 -0.77132812 5.31515625 -0.87890625 4.3828125 C-1 2 -1 2 0 0 Z " fill="#3F4040" transform="translate(110,240)"/>
<path d="M0 0 C2.475 0.495 2.475 0.495 5 1 C5 2.65 5 4.3 5 6 C3.0625 6.5625 3.0625 6.5625 1 7 C0 6 0 6 -0.0625 2.9375 C-0.041875 1.968125 -0.02125 0.99875 0 0 Z " fill="#ECEDEE" transform="translate(36,244)"/>
<path d="M0 0 C3.3 0 6.6 0 10 0 C10 1.65 10 3.3 10 5 C9.34 5 8.68 5 8 5 C8 3.68 8 2.36 8 1 C7.34 1 6.68 1 6 1 C6 2.32 6 3.64 6 5 C4.68 5 3.36 5 2 5 C1.67 4.01 1.34 3.02 1 2 C0.34 2.66 -0.32 3.32 -1 4 C-0.67 2.68 -0.34 1.36 0 0 Z " fill="#808080" transform="translate(580,177)"/>
<path d="M0 0 C0.33 0 0.66 0 1 0 C1 2.31 1 4.62 1 7 C-0.65 7.33 -2.3 7.66 -4 8 C-5.0625 6.125 -5.0625 6.125 -6 4 C-5.67 3.34 -5.34 2.68 -5 2 C-4.01 2.33 -3.02 2.66 -2 3 C-1.34 2.01 -0.68 1.02 0 0 Z " fill="#959595" transform="translate(252,168)"/>
<path d="M0 0 C1.32 0 2.64 0 4 0 C4 1.98 4 3.96 4 6 C2.0625 6.5625 2.0625 6.5625 0 7 C-1 6 -1 6 -1.125 3.5 C-1 1 -1 1 0 0 Z " fill="#F0F1F2" transform="translate(105,64)"/>
<path d="M0 0 C0.66 0.99 1.32 1.98 2 3 C4.05925139 3.72382467 4.05925139 3.72382467 6 4 C6 4.99 6 5.98 6 7 C5.05125 6.979375 4.1025 6.95875 3.125 6.9375 C0.09333717 6.77448174 0.09333717 6.77448174 -2 8 C-2 5.69 -2 3.38 -2 1 C-1.34 0.67 -0.68 0.34 0 0 Z " fill="#E0E1E2" transform="translate(76,244)"/>
<path d="M0 0 C2.0625 0.4375 2.0625 0.4375 4 1 C4 2.65 4 4.3 4 6 C2.0625 6.5625 2.0625 6.5625 0 7 C-1 6 -1 6 -1.125 3.5 C-1 1 -1 1 0 0 Z " fill="#F7F8F9" transform="translate(78,64)"/>
<path d="M0 0 C2.04698414 2.04698414 1.70045693 6.30411241 2 9 C1.01 8.67 0.02 8.34 -1 8 C-1 7.01 -1 6.02 -1 5 C-2.32 4.67 -3.64 4.34 -5 4 C-3.68 4 -2.36 4 -1 4 C-1 3.01 -1 2.02 -1 1 C-2.65 1.33 -4.3 1.66 -6 2 C-6 1.34 -6 0.68 -6 0 C-3.49749232 -1.25125384 -2.59701335 -0.83774624 0 0 Z " fill="#2D2D2D" transform="translate(41,63)"/>
<path d="M0 0 C0.33 0.66 0.66 1.32 1 2 C1.66 2 2.32 2 3 2 C3.33 1.34 3.66 0.68 4 0 C5.65 0.33 7.3 0.66 9 1 C9 2.32 9 3.64 9 5 C8.236875 4.814375 7.47375 4.62875 6.6875 4.4375 C3.91032625 3.77180827 3.91032625 3.77180827 1 5 C0.67 3.35 0.34 1.7 0 0 Z " fill="#777777" transform="translate(97,171)"/>
<path d="M0 0 C1.90845703 0.04060547 1.90845703 0.04060547 3.85546875 0.08203125 C5.31919922 0.13423828 5.31919922 0.13423828 6.8125 0.1875 C6.8125 0.5175 6.8125 0.8475 6.8125 1.1875 C2.5225 1.1875 -1.7675 1.1875 -6.1875 1.1875 C-6.8475 2.5075 -7.5075 3.8275 -8.1875 5.1875 C-8.85416667 6.52083333 -9.52083333 7.85416667 -10.1875 9.1875 C-10.54920213 3.76196809 -10.54920213 3.76196809 -9.125 1.5 C-6.14768212 -0.51689276 -3.53924705 -0.09741047 0 0 Z " fill="#656565" transform="translate(88.1875,323.8125)"/>
<path d="M0 0 C1.98 0.495 1.98 0.495 4 1 C4 1.66 4 2.32 4 3 C4.66 3 5.32 3 6 3 C6 3.99 6 4.98 6 6 C3.69 5.34 1.38 4.68 -1 4 C-0.67 2.68 -0.34 1.36 0 0 Z " fill="#929293" transform="translate(58,81)"/>
<path d="M0 0 C2.64 0.33 5.28 0.66 8 1 C8.33 1.99 8.66 2.98 9 4 C5.846632 4.70074844 3.27275026 5 0 5 C0 3.35 0 1.7 0 0 Z " fill="#B5B9BF" transform="translate(139,405)"/>
<path d="M0 0 C2.475 0.99 2.475 0.99 5 2 C5.125 5.375 5.125 5.375 5 9 C4.34 9.66 3.68 10.32 3 11 C2.01 10.67 1.02 10.34 0 10 C0.99 9.67 1.98 9.34 3 9 C2.65772428 6.02934491 2.65772428 6.02934491 2 3 C1.34 2.67 0.68 2.34 0 2 C0 1.34 0 0.68 0 0 Z " fill="#424242" transform="translate(96,310)"/>
<path d="M0 0 C1.65 0 3.3 0 5 0 C5.33 0.99 5.66 1.98 6 3 C3.625 4.5625 3.625 4.5625 1 6 C0.34 5.67 -0.32 5.34 -1 5 C-0.67 3.35 -0.34 1.7 0 0 Z " fill="#9B9B9B" transform="translate(413,171)"/>
<path d="M0 0 C1.32 0.66 2.64 1.32 4 2 C4 2.66 4 3.32 4 4 C2.68 4.33 1.36 4.66 0 5 C0.99 5.66 1.98 6.32 3 7 C1.68 7 0.36 7 -1 7 C-1.625 4.625 -1.625 4.625 -2 2 C-1.34 1.34 -0.68 0.68 0 0 Z " fill="#949494" transform="translate(99,14)"/>
<path d="M0 0 C0.33 1.65 0.66 3.3 1 5 C-0.65 4.67 -2.3 4.34 -4 4 C-4 3.01 -4 2.02 -4 1 C-4.66 1 -5.32 1 -6 1 C-6.33 1.99 -6.66 2.98 -7 4 C-7 2.68 -7 1.36 -7 0 C-3.86650268 -1.04449911 -3.01031744 -0.93423645 0 0 Z " fill="#B9BDC2" transform="translate(138,406)"/>
<path d="M0 0 C2.475 0.495 2.475 0.495 5 1 C4.67 2.32 4.34 3.64 4 5 C3.01 5 2.02 5 1 5 C0.67 5.66 0.34 6.32 0 7 C0 4.69 0 2.38 0 0 Z " fill="#8D8D8D" transform="translate(245,343)"/>
<path d="M0 0 C1.65 0 3.3 0 5 0 C5 1.32 5 2.64 5 4 C3.68 4 2.36 4 1 4 C1 5.65 1 7.3 1 9 C0.67 9 0.34 9 0 9 C0 6.03 0 3.06 0 0 Z " fill="#5B5B5B" transform="translate(22,12)"/>
<path d="M0 0 C2.00720923 0.28674418 4.0085944 0.61866701 6 1 C6 1.99 6 2.98 6 4 C4.02 4.33 2.04 4.66 0 5 C-0.5625 3.0625 -0.5625 3.0625 -1 1 C-0.67 0.67 -0.34 0.34 0 0 Z " fill="#C4C8CC" transform="translate(606,405)"/>
<path d="M0 0 C0.66 0 1.32 0 2 0 C2 0.99 2 1.98 2 3 C5.465 2.505 5.465 2.505 9 2 C9.33 2.66 9.66 3.32 10 4 C9.34 4.66 8.68 5.32 8 6 C8 5.34 8 4.68 8 4 C7.05125 4.20625 6.1025 4.4125 5.125 4.625 C4.09375 4.74875 3.0625 4.8725 2 5 C1.34 4.34 0.68 3.68 0 3 C0 2.01 0 1.02 0 0 Z " fill="#424242" transform="translate(243,328)"/>
<path d="M0 0 C0.66 0 1.32 0 2 0 C3.0625 1.8125 3.0625 1.8125 4 4 C3 7 3 7 2 9 C1.34 9 0.68 9 0 9 C0 6.03 0 3.06 0 0 Z " fill="#969696" transform="translate(30,12)"/>
<path d="M0 0 C2 0 4 0 6 0 C6 1.65 6 3.3 6 5 C3.69 5 1.38 5 -1 5 C-0.67 3.35 -0.34 1.7 0 0 Z " fill="#ADB1B8" transform="translate(123,405)"/>
<path d="M0 0 C1.98 0.495 1.98 0.495 4 1 C4 2.32 4 3.64 4 5 C2.35 5 0.7 5 -1 5 C-0.67 3.35 -0.34 1.7 0 0 Z " fill="#EDEDED" transform="translate(253,319)"/>
<path d="M0 0 C0.66 0.33 1.32 0.66 2 1 C2.185625 1.9590625 2.185625 1.9590625 2.375 2.9375 C2.80939427 5.19851273 2.80939427 5.19851273 5.0625 6.25 C5.701875 6.4975 6.34125 6.745 7 7 C4.6875 7.6875 4.6875 7.6875 2 8 C0.125 6.875 0.125 6.875 -1 5 C-0.6875 2.3125 -0.6875 2.3125 0 0 Z " fill="#636363" transform="translate(83,313)"/>
<path d="M0 0 C0.33 0 0.66 0 1 0 C1.33 2.64 1.66 5.28 2 8 C-0.31 7.67 -2.62 7.34 -5 7 C-5 6.01 -5 5.02 -5 4 C-3.68 4 -2.36 4 -1 4 C-0.67 2.68 -0.34 1.36 0 0 Z " fill="#ABACAD" transform="translate(99,244)"/>
<path d="M0 0 C1.32 0.33 2.64 0.66 4 1 C3.67 2.65 3.34 4.3 3 6 C2.01 6.33 1.02 6.66 0 7 C0 4.69 0 2.38 0 0 Z " fill="#888888" transform="translate(574,177)"/>
<path d="M0 0 C2.0625 0.4375 2.0625 0.4375 4 1 C4 2.65 4 4.3 4 6 C2.68 6 1.36 6 0 6 C-0.38218767 4.34385343 -0.71395102 2.67542976 -1 1 C-0.67 0.67 -0.34 0.34 0 0 Z " fill="#949494" transform="translate(251,342)"/>
<path d="M0 0 C0.33 0.66 0.66 1.32 1 2 C1.66 2 2.32 2 3 2 C3 2.66 3 3.32 3 4 C2.34 4 1.68 4 1 4 C1 6.31 1 8.62 1 11 C1.66 11.33 2.32 11.66 3 12 C2.01 12 1.02 12 0 12 C0 9.36 0 6.72 0 4 C-0.66 4 -1.32 4 -2 4 C-2 3.34 -2 2.68 -2 2 C-1.34 2 -0.68 2 0 2 C0 1.34 0 0.68 0 0 Z " fill="#1F1F20" transform="translate(87,240)"/>
<path d="M0 0 C2.475 0.495 2.475 0.495 5 1 C4.67 2.65 4.34 4.3 4 6 C3.67 5.34 3.34 4.68 3 4 C2.34 4 1.68 4 1 4 C0.67 4.66 0.34 5.32 0 6 C0 4.02 0 2.04 0 0 Z " fill="#7B7B7B" transform="translate(563,176)"/>
<path d="M0 0 C1.98 0 3.96 0 6 0 C5.67 1.32 5.34 2.64 5 4 C3.35 4 1.7 4 0 4 C0 2.68 0 1.36 0 0 Z " fill="#8E8F90" transform="translate(86,68)"/>
<path d="M0 0 C1.65 0 3.3 0 5 0 C4.34 0.66 3.68 1.32 3 2 C2.59952556 4.32275177 2.2602896 6.65739357 2 9 C1.34 9 0.68 9 0 9 C0 6.03 0 3.06 0 0 Z " fill="#3B3C3C" transform="translate(96,63)"/>
<path d="M0 0 C0.33 0 0.66 0 1 0 C1 2.97 1 5.94 1 9 C0.34 8.34 -0.32 7.68 -1 7 C-1.33 7.66 -1.66 8.32 -2 9 C-2.66 9 -3.32 9 -4 9 C-2.94124926 5.59687262 -1.99097846 2.98646769 0 0 Z " fill="#C0C0C0" transform="translate(38,12)"/>
<path d="M0 0 C1.98 0.495 1.98 0.495 4 1 C3.67 2.32 3.34 3.64 3 5 C1.68 4.67 0.36 4.34 -1 4 C-0.67 2.68 -0.34 1.36 0 0 Z " fill="#BEC2C7" transform="translate(47,405)"/>
<path d="M0 0 C0.99 0.33 1.98 0.66 3 1 C3 3.64 3 6.28 3 9 C2.01 8.67 1.02 8.34 0 8 C0 5.36 0 2.72 0 0 Z " fill="#898989" transform="translate(55,13)"/>
<path d="M0 0 C1.66666667 0 3.33333333 0 5 0 C5 1.65 5 3.3 5 5 C3.33333333 5 1.66666667 5 0 5 C0 3.35 0 1.7 0 0 Z " fill="#BABEC3" transform="translate(77,405)"/>
<path d="M0 0 C2.97 0.495 2.97 0.495 6 1 C5.34 2.32 4.68 3.64 4 5 C4 4.34 4 3.68 4 3 C3.01 3 2.02 3 1 3 C0.67 3.66 0.34 4.32 0 5 C0 3.35 0 1.7 0 0 Z " fill="#AEB2B8" transform="translate(497,405)"/>
<path d="M0 0 C0.99 0 1.98 0 3 0 C3 1.65 3 3.3 3 5 C1.68 5 0.36 5 -1 5 C-0.67 3.35 -0.34 1.7 0 0 Z " fill="#909090" transform="translate(257,343)"/>
<path d="M0 0 C0.99 0.33 1.98 0.66 3 1 C2.34 1 1.68 1 1 1 C1 1.99 1 2.98 1 4 C1.99 4 2.98 4 4 4 C4 4.99 4 5.98 4 7 C2.35 6.67 0.7 6.34 -1 6 C-0.67 4.02 -0.34 2.04 0 0 Z " fill="#747474" transform="translate(86,343)"/>
<path d="M0 0 C0.99 0.33 1.98 0.66 3 1 C2.67 2.65 2.34 4.3 2 6 C0.68 5.34 -0.64 4.68 -2 4 C-1.34 2.68 -0.68 1.36 0 0 Z " fill="#8B8B8B" transform="translate(570,177)"/>
<path d="M0 0 C0.66 0 1.32 0 2 0 C2.66 1.98 3.32 3.96 4 6 C3.34 6 2.68 6 2 6 C2 5.34 2 4.68 2 4 C1.34 4 0.68 4 0 4 C0 4.66 0 5.32 0 6 C-0.66 5.67 -1.32 5.34 -2 5 C-1.34 3.35 -0.68 1.7 0 0 Z " fill="#787878" transform="translate(77,170)"/>
<path d="M0 0 C0.66 0 1.32 0 2 0 C2 2.31 2 4.62 2 7 C1.01 7 0.02 7 -1 7 C-0.67 4.69 -0.34 2.38 0 0 Z " fill="#6B6B6C" transform="translate(86,79)"/>
<path d="M0 0 C1.32 0 2.64 0 4 0 C4 1.65 4 3.3 4 5 C2.68 4.67 1.36 4.34 0 4 C0 2.68 0 1.36 0 0 Z " fill="#8F8F90" transform="translate(44,81)"/>
<path d="M0 0 C2.31 0 4.62 0 7 0 C7 1.32 7 2.64 7 4 C5.02 4 3.04 4 1 4 C0.67 2.68 0.34 1.36 0 0 Z " fill="#747474" transform="translate(161,12)"/>
<path d="M0 0 C0.99 0 1.98 0 3 0 C3 1.65 3 3.3 3 5 C1.68 5 0.36 5 -1 5 C-0.67 3.35 -0.34 1.7 0 0 Z " fill="#949494" transform="translate(592,177)"/>
<path d="M0 0 C0.99 0 1.98 0 3 0 C3 1.65 3 3.3 3 5 C1.68 5 0.36 5 -1 5 C-0.67 3.35 -0.34 1.7 0 0 Z " fill="#828282" transform="translate(255,170)"/>
<path d="M0 0 C0.99 0.33 1.98 0.66 3 1 C3 3.31 3 5.62 3 8 C2.01 7.67 1.02 7.34 0 7 C0 4.69 0 2.38 0 0 Z " fill="#9A9A9A" transform="translate(144,13)"/>
<path d="M0 0 C1.65 0 3.3 0 5 0 C5 0.99 5 1.98 5 3 C3.68 3.33 2.36 3.66 1 4 C0.67 2.68 0.34 1.36 0 0 Z " fill="#5B5B5B" transform="translate(60,18)"/>
</svg>
